#define load_width 8
#define load_height 8
static unsigned char load_bits[] = {
   0x40, 0xfe, 0x82, 0x82, 0x82, 0xfe, 0xaa, 0xfe };
