#define boost_width 7
#define boost_height 8
static unsigned char boost_bits[] = {
   0x08, 0x1c, 0x3e, 0x7f, 0x1c, 0x5d, 0x41, 0x3e };
