#define socket_width 8
#define socket_height 8
static unsigned char socket_bits[] = {
   0x24, 0x24, 0x7e, 0x7e, 0x7e, 0x7e, 0x18, 0x78 };
